<svg width="393" height="243" viewBox="0 0 393 243" fill="none" xmlns="http://www.w3.org/2000/svg">
<rect x="1.5" y="1.5" width="390" height="240" fill="#D9D9D9" stroke="black" stroke-width="3"/>
<path d="M121.208 63V45.752H116.312V40.984H131.992V45.752H127.064V63H121.208ZM134.194 63V40.984H147.794V45.56H140.05V49.624H146.578V54.136H140.05V58.424H147.794V63H134.194ZM163.908 62.712C163.311 62.8613 162.543 62.9893 161.604 63.096C160.666 63.2027 159.77 63.256 158.916 63.256C156.463 63.256 154.65 62.9253 153.476 62.264C152.324 61.5813 151.556 60.4827 151.172 58.968C150.81 57.432 150.628 55.1067 150.628 51.992C150.628 48.8987 150.82 46.584 151.204 45.048C151.588 43.512 152.356 42.4133 153.508 41.752C154.66 41.0693 156.463 40.728 158.916 40.728C159.77 40.728 160.644 40.7813 161.54 40.888C162.458 40.9947 163.215 41.1333 163.812 41.304V45.56C161.871 45.3893 160.676 45.304 160.228 45.304C158.948 45.304 158.074 45.4427 157.604 45.72C157.135 45.976 156.836 46.52 156.708 47.352C156.58 48.184 156.516 49.7307 156.516 51.992C156.516 54.2747 156.58 55.832 156.708 56.664C156.836 57.4747 157.135 58.0187 157.604 58.296C158.074 58.552 158.948 58.68 160.228 58.68C161.594 58.68 162.82 58.5947 163.908 58.424V62.712ZM177.232 63V54.424H172.656V63H166.8V40.984H172.656V49.464H177.232V40.984H183.088V63H177.232Z" fill="#2C2C34"/>
<path d="M186.65 63V40.984H192.506V58.232H199.226V63H186.65ZM201.594 63V40.984H215.194V45.56H207.45V49.624H213.978V54.136H207.45V58.424H215.194V63H201.594ZM230.156 63L229.26 59.032H223.372L222.54 63H216.78L222.284 40.984H230.508L236.012 63H230.156ZM226.412 46.008H226.188L224.364 54.584H228.268L226.412 46.008ZM248.254 63L246.014 55.48H243.806V63H237.95V40.984H247.486C249.278 40.984 250.622 41.2507 251.518 41.784C252.435 42.3173 253.043 43.096 253.342 44.12C253.662 45.1227 253.822 46.488 253.822 48.216C253.822 49.8373 253.662 51.1813 253.342 52.248C253.022 53.2933 252.382 54.0827 251.422 54.616L254.302 63H248.254ZM245.598 51.096C246.345 51.096 246.867 51.0427 247.166 50.936C247.486 50.808 247.699 50.5627 247.806 50.2C247.913 49.816 247.966 49.176 247.966 48.28C247.966 47.384 247.923 46.7653 247.838 46.424C247.753 46.0613 247.55 45.816 247.23 45.688C246.91 45.56 246.366 45.496 245.598 45.496H243.806V51.096H245.598ZM267.998 63L262.622 51.64H262.462V63H256.894V40.984H262.75L267.582 51.064H267.774V40.984H273.374V63H267.998Z" fill="#5826ED"/>
<line x1="83.8302" y1="59.2448" x2="96.7007" y2="39.939" stroke="#6734FF" stroke-width="1.4"/>
<line x1="84.0127" y1="59.0775" x2="99.6266" y2="63.5045" stroke="#6734FF" stroke-width="1.4"/>
<line x1="99.0473" y1="63.5958" x2="108.909" y2="57.0215" stroke="#6734FF" stroke-width="1.4"/>
<line x1="99.2684" y1="64.535" x2="96.6143" y2="40.0756" stroke="#6734FF" stroke-width="1.4"/>
<line x1="95.7903" y1="53.4486" x2="96.6121" y2="41.1218" stroke="#6734FF" stroke-width="1.4"/>
<line x1="109.095" y1="57.4524" x2="95.4648" y2="53.3435" stroke="#6734FF" stroke-width="1.4"/>
<line x1="83.9837" y1="59.1283" x2="96.1689" y2="52.8721" stroke="#6734FF" stroke-width="1.4"/>
<line x1="108.727" y1="57.1891" x2="96.7408" y2="40.407" stroke="#6734FF" stroke-width="1.4"/>
<circle cx="96.5" cy="53.5" r="1.5" fill="#6734FF"/>
<circle cx="99.5" cy="63.5" r="1.5" fill="#6734FF"/>
<circle cx="84.5" cy="59.5" r="1.5" fill="#6734FF"/>
<circle cx="108.5" cy="57.5" r="1.5" fill="#6734FF"/>
<path d="M126.484 97.488H131.812C133.956 97.488 135.476 97.728 136.372 98.208C137.284 98.672 137.844 99.424 138.052 100.464C138.276 101.504 138.388 103.264 138.388 105.744C138.388 108.224 138.276 109.984 138.052 111.024C137.844 112.064 137.284 112.824 136.372 113.304C135.476 113.768 133.956 114 131.812 114H126.484V97.488ZM131.812 110.568C132.58 110.568 133.1 110.496 133.372 110.352C133.644 110.192 133.812 109.816 133.876 109.224C133.956 108.616 133.996 107.456 133.996 105.744C133.996 104.016 133.956 102.856 133.876 102.264C133.812 101.672 133.644 101.304 133.372 101.16C133.116 101 132.596 100.92 131.812 100.92H130.876V110.568H131.812ZM149.595 114L148.923 111.024H144.507L143.883 114H139.563L143.691 97.488H149.859L153.987 114H149.595ZM146.787 101.256H146.619L145.251 107.688H148.179L146.787 101.256ZM157.192 114V101.064H153.52V97.488H165.28V101.064H161.584V114H157.192ZM174.827 114L174.155 111.024H169.739L169.115 114H164.795L168.923 97.488H175.091L179.219 114H174.827ZM172.019 101.256H171.851L170.483 107.688H173.411L172.019 101.256ZM191.445 114.192C190.549 114.192 189.605 114.152 188.613 114.072C187.637 114.008 186.781 113.912 186.045 113.784V110.544C187.837 110.688 189.197 110.76 190.125 110.76C190.765 110.76 191.237 110.736 191.541 110.688C191.861 110.64 192.085 110.552 192.213 110.424C192.341 110.312 192.421 110.168 192.453 109.992C192.485 109.8 192.501 109.536 192.501 109.2C192.501 108.752 192.461 108.432 192.381 108.24C192.317 108.048 192.165 107.912 191.925 107.832C191.701 107.736 191.301 107.648 190.725 107.568L188.181 107.184C187.205 107.056 186.533 106.592 186.165 105.792C185.813 104.976 185.637 103.824 185.637 102.336C185.637 100.96 185.877 99.904 186.357 99.168C186.837 98.432 187.485 97.936 188.301 97.68C189.117 97.424 190.141 97.296 191.373 97.296C192.253 97.296 193.117 97.344 193.965 97.44C194.813 97.536 195.541 97.648 196.149 97.776V100.968C194.805 100.808 193.509 100.728 192.261 100.728C191.733 100.728 191.325 100.752 191.037 100.8C190.765 100.832 190.557 100.896 190.413 100.992C190.253 101.088 190.149 101.224 190.101 101.4C190.053 101.576 190.029 101.832 190.029 102.168C190.029 102.568 190.053 102.856 190.101 103.032C190.149 103.208 190.253 103.336 190.413 103.416C190.573 103.496 190.853 103.568 191.253 103.632L193.725 103.992C194.381 104.088 194.925 104.256 195.357 104.496C195.789 104.736 196.141 105.152 196.413 105.744C196.733 106.416 196.893 107.416 196.893 108.744C196.893 110.312 196.669 111.488 196.221 112.272C195.773 113.056 195.165 113.576 194.397 113.832C193.645 114.072 192.661 114.192 191.445 114.192ZM208.756 113.784C208.308 113.896 207.732 113.992 207.028 114.072C206.324 114.152 205.652 114.192 205.012 114.192C203.172 114.192 201.812 113.944 200.932 113.448C200.068 112.936 199.492 112.112 199.204 110.976C198.932 109.824 198.796 108.08 198.796 105.744C198.796 103.424 198.94 101.688 199.228 100.536C199.516 99.384 200.092 98.56 200.956 98.064C201.82 97.552 203.172 97.296 205.012 97.296C205.652 97.296 206.308 97.336 206.98 97.416C207.668 97.496 208.236 97.6 208.684 97.728V100.92C207.228 100.792 206.332 100.728 205.996 100.728C205.036 100.728 204.38 100.832 204.028 101.04C203.676 101.232 203.452 101.64 203.356 102.264C203.26 102.888 203.212 104.048 203.212 105.744C203.212 107.456 203.26 108.624 203.356 109.248C203.452 109.856 203.676 110.264 204.028 110.472C204.38 110.664 205.036 110.76 205.996 110.76C207.02 110.76 207.94 110.696 208.756 110.568V113.784ZM210.95 114V97.488H215.342V114H210.95ZM218.034 114V97.488H228.234V100.92H222.426V103.968H227.322V107.352H222.426V110.568H228.234V114H218.034ZM239.001 114L234.969 105.48H234.849V114H230.673V97.488H235.065L238.689 105.048H238.833V97.488H243.033V114H239.001ZM255.375 113.784C254.927 113.896 254.351 113.992 253.647 114.072C252.943 114.152 252.271 114.192 251.631 114.192C249.791 114.192 248.431 113.944 247.551 113.448C246.687 112.936 246.111 112.112 245.823 110.976C245.551 109.824 245.415 108.08 245.415 105.744C245.415 103.424 245.559 101.688 245.847 100.536C246.135 99.384 246.711 98.56 247.575 98.064C248.439 97.552 249.791 97.296 251.631 97.296C252.271 97.296 252.927 97.336 253.599 97.416C254.287 97.496 254.855 97.6 255.303 97.728V100.92C253.847 100.792 252.951 100.728 252.615 100.728C251.655 100.728 250.999 100.832 250.647 101.04C250.295 101.232 250.071 101.64 249.975 102.264C249.879 102.888 249.831 104.048 249.831 105.744C249.831 107.456 249.879 108.624 249.975 109.248C250.071 109.856 250.295 110.264 250.647 110.472C250.999 110.664 251.655 110.76 252.615 110.76C253.639 110.76 254.559 110.696 255.375 110.568V113.784ZM257.569 114V97.488H267.769V100.92H261.961V103.968H266.857V107.352H261.961V110.568H267.769V114H257.569Z" fill="black"/>
<rect x="84" y="131" width="225" height="11" fill="#79747E"/>
<rect x="83" y="149" width="225" height="11" fill="#79747E"/>
<rect x="83" y="169" width="225" height="11" fill="#79747E"/>
<rect x="110" y="205" width="60" height="2" fill="#79747E"/>
<rect x="216" y="205" width="60" height="2" fill="#79747E"/>
<g clip-path="url(#clip0_449_2623)">
<path d="M370.592 95.2187L360.765 93.4367L355.556 102L341.502 70.5188L356.539 63.688L370.592 95.2187Z" fill="#E19E33"/>
<path d="M318.408 95.2187L328.235 93.4367L333.444 102L347.497 70.5188L332.461 63.688L318.408 95.2187Z" fill="#E19E33"/>
<path d="M371.821 54.3823L369.609 56.4612C368.578 57.4017 368.184 58.8867 368.627 60.2231L369.511 63.1435C370.15 65.173 368.921 67.3509 366.858 67.7964L363.909 68.4399C362.534 68.7369 361.453 69.8259 361.158 71.2118L360.519 74.1818C360.077 76.2607 357.915 77.4982 355.9 76.8547L353.05 75.9637C351.723 75.5182 350.249 75.9142 349.315 76.9537L347.252 79.1811C345.827 80.7651 343.37 80.7651 341.896 79.1811L339.832 76.9537C338.898 75.9142 337.424 75.5182 336.097 75.9637L333.198 76.8547C331.184 77.4982 329.021 76.2607 328.579 74.1818L327.94 71.2118C327.646 69.8259 326.565 68.7369 325.189 68.4399L322.24 67.7964C320.177 67.3509 318.948 65.173 319.587 63.1435L320.422 60.2231C320.865 58.8867 320.471 57.4017 319.44 56.4612L317.228 54.3823C315.656 52.9468 315.656 50.4719 317.228 48.9869L319.44 46.908C320.471 45.9675 320.865 44.4825 320.422 43.1461L319.538 40.2256C318.899 38.1962 320.128 36.0182 322.191 35.5727L325.14 34.9293C326.515 34.6323 327.596 33.5433 327.891 32.1573L328.53 29.1874C328.972 27.1085 331.134 25.871 333.149 26.5145L336.048 27.4549C337.375 27.9004 338.849 27.5044 339.783 26.465L341.846 24.2375C343.271 22.6536 345.728 22.6536 347.203 24.2375L349.266 26.465C350.2 27.5044 351.674 27.9004 353.001 27.4549L355.9 26.564C357.915 25.9205 360.077 27.158 360.519 29.2369L361.158 32.2068C361.453 33.5928 362.534 34.6818 363.909 34.9788L366.858 35.6222C368.921 36.0677 370.15 38.2457 369.511 40.2751L368.627 43.1461C368.184 44.4825 368.578 45.9675 369.609 46.908L371.821 48.9869C373.393 50.4719 373.393 52.9468 371.821 54.3823Z" fill="#EEC335"/>
<path d="M344.5 73.0434C356.197 73.0434 365.678 63.4919 365.678 51.7094C365.678 39.927 356.197 30.3755 344.5 30.3755C332.803 30.3755 323.322 39.927 323.322 51.7094C323.322 63.4919 332.803 73.0434 344.5 73.0434Z" fill="#E19E33"/>
<path d="M351.874 68.5001C361.082 64.3976 365.244 53.553 361.172 44.278C357.099 35.003 346.333 30.8098 337.126 34.9123C327.919 39.0148 323.756 49.8595 327.829 59.1345C331.901 68.4095 342.667 72.6027 351.874 68.5001Z" fill="#F5D54F"/>
<path d="M339.193 34.1372C336.638 34.9292 334.328 36.2657 332.412 37.9981L358.16 63.9354C359.88 62.005 361.207 59.6786 361.993 57.1046L339.193 34.1372Z" fill="white"/>
<path d="M348.972 69.5288C350.298 69.1823 351.625 68.6874 352.804 68.0439L328.284 43.344C327.646 44.5815 327.154 45.8684 326.81 47.2049L348.972 69.5288Z" fill="white"/>
<path d="M356.588 49.8778C357.669 48.7888 357.079 46.9078 355.556 46.6603L350.102 45.7694C349.512 45.6704 349.021 45.3239 348.726 44.7794L346.171 39.8295C345.483 38.4435 343.517 38.4435 342.829 39.8295L340.274 44.7794C339.979 45.3239 339.488 45.6704 338.898 45.7694L333.444 46.6603C331.921 46.9078 331.331 48.7888 332.412 49.8778L336.294 53.8377C336.736 54.2831 336.884 54.8771 336.835 55.4711L335.999 60.9655C335.753 62.4999 337.326 63.6384 338.702 62.9454L343.665 60.4705C344.205 60.223 344.844 60.223 345.335 60.4705L350.298 62.9454C351.674 63.6384 353.247 62.4999 353.001 60.9655L352.166 55.4711C352.067 54.8771 352.264 54.2831 352.706 53.8377L356.588 49.8778Z" fill="#E19E33"/>
</g>
<defs>
<clipPath id="clip0_449_2623">
<rect width="57" height="79" fill="white" transform="translate(316 23)"/>
</clipPath>
</defs>
</svg>
