<svg width="274" height="45" viewBox="0 0 274 45" fill="none" xmlns="http://www.w3.org/2000/svg">
<path d="M46.7942 39V14.206H39.7562V7.352H62.2962V14.206H55.2122V39H46.7942ZM65.4172 39V7.352H84.9672V13.93H73.8352V19.772H83.2192V26.258H73.8352V32.422H84.9672V39H65.4172ZM108.088 38.586C107.23 38.8007 106.126 38.9847 104.776 39.138C103.427 39.2913 102.139 39.368 100.912 39.368C97.3857 39.368 94.779 38.8927 93.0924 37.942C91.4364 36.9607 90.3324 35.3813 89.7804 33.204C89.259 30.996 88.9984 27.6533 88.9984 23.176C88.9984 18.7293 89.2744 15.402 89.8264 13.194C90.3784 10.986 91.4824 9.40667 93.1384 8.456C94.7944 7.47466 97.3857 6.984 100.912 6.984C102.139 6.984 103.396 7.06066 104.684 7.214C106.003 7.36733 107.092 7.56666 107.95 7.812V13.93C105.16 13.6847 103.442 13.562 102.798 13.562C100.958 13.562 99.701 13.7613 99.0264 14.16C98.3517 14.528 97.9224 15.31 97.7384 16.506C97.5544 17.702 97.4624 19.9253 97.4624 23.176C97.4624 26.4573 97.5544 28.696 97.7384 29.892C97.9224 31.0573 98.3517 31.8393 99.0264 32.238C99.701 32.606 100.958 32.79 102.798 32.79C104.761 32.79 106.524 32.6673 108.088 32.422V38.586ZM127.197 39V26.672H120.619V39H112.201V7.352H120.619V19.542H127.197V7.352H135.615V39H127.197Z" fill="#2C2C34"/>
<path d="M140.692 39V7.352H149.11V32.146H158.77V39H140.692ZM162.13 39V7.352H181.68V13.93H170.548V19.772H179.932V26.258H170.548V32.422H181.68V39H162.13ZM203.145 39L201.857 33.296H193.393L192.197 39H183.917L191.829 7.352H203.651L211.563 39H203.145ZM197.763 14.574H197.441L194.819 26.902H200.431L197.763 14.574ZM229.116 39L225.896 28.19H222.722V39H214.304V7.352H228.012C230.588 7.352 232.52 7.73533 233.808 8.502C235.127 9.26867 236.001 10.388 236.43 11.86C236.89 13.3013 237.12 15.264 237.12 17.748C237.12 20.0787 236.89 22.0107 236.43 23.544C235.97 25.0467 235.05 26.1813 233.67 26.948L237.81 39H229.116ZM225.298 21.888C226.372 21.888 227.123 21.8113 227.552 21.658C228.012 21.474 228.319 21.1213 228.472 20.6C228.626 20.048 228.702 19.128 228.702 17.84C228.702 16.552 228.641 15.6627 228.518 15.172C228.396 14.6507 228.104 14.298 227.644 14.114C227.184 13.93 226.402 13.838 225.298 13.838H222.722V21.888H225.298ZM257.454 39L249.726 22.67H249.496V39H241.492V7.352H249.91L256.856 21.842H257.132V7.352H265.182V39H257.454Z" fill="#5826ED"/>
<line x1="1.13631" y1="33.0808" x2="16.798" y2="9.5883" stroke="#6734FF" stroke-width="1.4"/>
<line x1="1.19094" y1="32.9395" x2="20.1909" y2="38.3265" stroke="#6734FF" stroke-width="1.4"/>
<line x1="19.6117" y1="38.4176" x2="31.6117" y2="30.4176" stroke="#6734FF" stroke-width="1.4"/>
<line x1="19.9476" y1="39.4178" x2="16.7179" y2="9.65397" stroke="#6734FF" stroke-width="1.4"/>
<line x1="15.7154" y1="25.9534" x2="16.7154" y2="10.9534" stroke="#6734FF" stroke-width="1.4"/>
<line x1="31.798" y1="30.6702" x2="15.2118" y2="25.6702" stroke="#6734FF" stroke-width="1.4"/>
<line x1="1.26646" y1="32.9902" x2="16.0941" y2="25.3773" stroke="#6734FF" stroke-width="1.4"/>
<line x1="31.4304" y1="30.4069" x2="16.8441" y2="9.98533" stroke="#6734FF" stroke-width="1.4"/>
<circle cx="16" cy="26" r="2" fill="#6734FF"/>
<circle cx="20" cy="38" r="2" fill="#6734FF"/>
<circle cx="2" cy="33" r="2" fill="#6734FF"/>
<circle cx="31" cy="31" r="2" fill="#6734FF"/>
</svg>
