<svg width="482" height="121" viewBox="0 0 482 121" fill="none" xmlns="http://www.w3.org/2000/svg">
<path d="M124.314 85V47.27H113.604V36.84H147.904V47.27H137.124V85H124.314ZM152.601 85V36.84H182.351V46.85H165.411V55.74H179.691V65.61H165.411V74.99H182.351V85H152.601ZM217.483 84.37C216.176 84.6967 214.496 84.9767 212.443 85.21C210.39 85.4433 208.43 85.56 206.563 85.56C201.196 85.56 197.23 84.8367 194.663 83.39C192.143 81.8967 190.463 79.4933 189.623 76.18C188.83 72.82 188.433 67.7333 188.433 60.92C188.433 54.1533 188.853 49.09 189.693 45.73C190.533 42.37 192.213 39.9667 194.733 38.52C197.253 37.0267 201.196 36.28 206.563 36.28C208.43 36.28 210.343 36.3967 212.303 36.63C214.31 36.8633 215.966 37.1667 217.273 37.54V46.85C213.026 46.4767 210.413 46.29 209.433 46.29C206.633 46.29 204.72 46.5933 203.693 47.2C202.666 47.76 202.013 48.95 201.733 50.77C201.453 52.59 201.313 55.9733 201.313 60.92C201.313 65.9133 201.453 69.32 201.733 71.14C202.013 72.9133 202.666 74.1033 203.693 74.71C204.72 75.27 206.633 75.55 209.433 75.55C212.42 75.55 215.103 75.3633 217.483 74.99V84.37ZM246.509 85V66.24H236.499V85H223.689V36.84H236.499V55.39H246.509V36.84H259.319V85H246.509Z" fill="white"/>
<path d="M266.993 85V36.84H279.803V74.57H294.503V85H266.993ZM299.563 85V36.84H329.313V46.85H312.373V55.74H326.653V65.61H312.373V74.99H329.313V85H299.563ZM361.926 85L359.966 76.32H347.086L345.266 85H332.666L344.706 36.84H362.696L374.736 85H361.926ZM353.736 47.83H353.246L349.256 66.59H357.796L353.736 47.83ZM401.395 85L396.495 68.55H391.665V85H378.855V36.84H399.715C403.635 36.84 406.575 37.4233 408.535 38.59C410.542 39.7567 411.872 41.46 412.525 43.7C413.225 45.8933 413.575 48.88 413.575 52.66C413.575 56.2067 413.225 59.1467 412.525 61.48C411.825 63.7667 410.425 65.4933 408.325 66.66L414.625 85H401.395ZM395.585 58.96C397.218 58.96 398.362 58.8433 399.015 58.61C399.715 58.33 400.182 57.7933 400.415 57C400.648 56.16 400.765 54.76 400.765 52.8C400.765 50.84 400.672 49.4867 400.485 48.74C400.298 47.9467 399.855 47.41 399.155 47.13C398.455 46.85 397.265 46.71 395.585 46.71H391.665V58.96H395.585ZM444.466 85L432.706 60.15H432.356V85H420.176V36.84H432.986L443.556 58.89H443.976V36.84H456.226V85H444.466Z" fill="#5826ED"/>
<line x1="3.97433" y1="86.8196" x2="46.0869" y2="23.6508" stroke="#6734FF" stroke-width="3.5"/>
<line x1="3.97541" y1="86.4924" x2="55.0643" y2="100.978" stroke="#6734FF" stroke-width="3.5"/>
<line x1="53.6159" y1="101.206" x2="85.8826" y2="79.6947" stroke="#6734FF" stroke-width="3.5"/>
<line x1="54.5776" y1="103.771" x2="45.8933" y2="23.7394" stroke="#6734FF" stroke-width="3.5"/>
<line x1="43.198" y1="67.5896" x2="45.8869" y2="27.2563" stroke="#6734FF" stroke-width="3.5"/>
<line x1="86.3484" y1="80.1372" x2="41.75" y2="66.6927" stroke="#6734FF" stroke-width="3.5"/>
<line x1="4.27491" y1="86.6192" x2="44.1448" y2="66.1489" stroke="#6734FF" stroke-width="3.5"/>
<line x1="85.4295" y1="79.4788" x2="46.2086" y2="24.5676" stroke="#6734FF" stroke-width="3.5"/>
<circle cx="43.8314" cy="67.7061" r="5.37778" fill="#6734FF"/>
<circle cx="54.587" cy="99.9732" r="5.37778" fill="#6734FF"/>
<circle cx="6.18686" cy="86.5287" r="5.37778" fill="#6734FF"/>
<circle cx="84.1649" cy="81.1507" r="5.37778" fill="#6734FF"/>
</svg>
