<svg width="227" height="34" viewBox="0 0 227 34" fill="none" xmlns="http://www.w3.org/2000/svg">
<path d="M7.79449 33V8.206H0.756491V1.352H23.2965V8.206H16.2125V33H7.79449ZM26.4174 33V1.352H45.9674V7.93H34.8354V13.772H44.2194V20.258H34.8354V26.422H45.9674V33H26.4174ZM69.0886 32.586C68.2299 32.8007 67.1259 32.9847 65.7766 33.138C64.4273 33.2913 63.1393 33.368 61.9126 33.368C58.3859 33.368 55.7793 32.8927 54.0926 31.942C52.4366 30.9607 51.3326 29.3813 50.7806 27.204C50.2593 24.996 49.9986 21.6533 49.9986 17.176C49.9986 12.7293 50.2746 9.402 50.8266 7.194C51.3786 4.986 52.4826 3.40667 54.1386 2.456C55.7946 1.47466 58.3859 0.983998 61.9126 0.983998C63.1393 0.983998 64.3966 1.06066 65.6846 1.214C67.0033 1.36733 68.0919 1.56666 68.9506 1.812V7.93C66.1599 7.68467 64.4426 7.562 63.7986 7.562C61.9586 7.562 60.7013 7.76133 60.0266 8.16C59.3519 8.528 58.9226 9.31 58.7386 10.506C58.5546 11.702 58.4626 13.9253 58.4626 17.176C58.4626 20.4573 58.5546 22.696 58.7386 23.892C58.9226 25.0573 59.3519 25.8393 60.0266 26.238C60.7013 26.606 61.9586 26.79 63.7986 26.79C65.7613 26.79 67.5246 26.6673 69.0886 26.422V32.586ZM88.1974 33V20.672H81.6194V33H73.2014V1.352H81.6194V13.542H88.1974V1.352H96.6154V33H88.1974Z" fill="white"/>
<path d="M101.692 33V1.352H110.11V26.146H119.77V33H101.692ZM123.13 33V1.352H142.68V7.93H131.548V13.772H140.932V20.258H131.548V26.422H142.68V33H123.13ZM164.145 33L162.857 27.296H154.393L153.197 33H144.917L152.829 1.352H164.651L172.563 33H164.145ZM158.763 8.574H158.441L155.819 20.902H161.431L158.763 8.574ZM190.116 33L186.896 22.19H183.722V33H175.304V1.352H189.012C191.588 1.352 193.52 1.73533 194.808 2.502C196.127 3.26867 197.001 4.388 197.43 5.86C197.89 7.30133 198.12 9.264 198.12 11.748C198.12 14.0787 197.89 16.0107 197.43 17.544C196.97 19.0467 196.05 20.1813 194.67 20.948L198.81 33H190.116ZM186.298 15.888C187.372 15.888 188.123 15.8113 188.552 15.658C189.012 15.474 189.319 15.1213 189.472 14.6C189.626 14.048 189.702 13.128 189.702 11.84C189.702 10.552 189.641 9.66267 189.518 9.172C189.396 8.65067 189.104 8.298 188.644 8.114C188.184 7.93 187.402 7.838 186.298 7.838H183.722V15.888H186.298ZM218.454 33L210.726 16.67H210.496V33H202.492V1.352H210.91L217.856 15.842H218.132V1.352H226.182V33H218.454Z" fill="#5826ED"/>
</svg>
