<svg width="227" height="34" viewBox="0 0 227 34" fill="none" xmlns="http://www.w3.org/2000/svg">
<path d="M7.79425 33V8.206H0.756247V1.352H23.2962V8.206H16.2122V33H7.79425ZM26.4172 33V1.352H45.9672V7.93H34.8352V13.772H44.2192V20.258H34.8352V26.422H45.9672V33H26.4172ZM69.0884 32.586C68.2297 32.8007 67.1257 32.9847 65.7764 33.138C64.427 33.2913 63.139 33.368 61.9124 33.368C58.3857 33.368 55.779 32.8927 54.0924 31.942C52.4364 30.9607 51.3324 29.3813 50.7804 27.204C50.259 24.996 49.9984 21.6533 49.9984 17.176C49.9984 12.7293 50.2744 9.402 50.8264 7.194C51.3784 4.986 52.4824 3.40667 54.1384 2.456C55.7944 1.47466 58.3857 0.983998 61.9124 0.983998C63.139 0.983998 64.3964 1.06066 65.6844 1.214C67.003 1.36733 68.0917 1.56666 68.9504 1.812V7.93C66.1597 7.68467 64.4424 7.562 63.7984 7.562C61.9584 7.562 60.701 7.76133 60.0264 8.16C59.3517 8.528 58.9224 9.31 58.7384 10.506C58.5544 11.702 58.4624 13.9253 58.4624 17.176C58.4624 20.4573 58.5544 22.696 58.7384 23.892C58.9224 25.0573 59.3517 25.8393 60.0264 26.238C60.701 26.606 61.9584 26.79 63.7984 26.79C65.761 26.79 67.5244 26.6673 69.0884 26.422V32.586ZM88.1971 33V20.672H81.6191V33H73.2011V1.352H81.6191V13.542H88.1971V1.352H96.6151V33H88.1971Z" fill="#2C2C34"/>
<path d="M101.692 33V1.352H110.11V26.146H119.77V33H101.692ZM123.13 33V1.352H142.68V7.93H131.548V13.772H140.932V20.258H131.548V26.422H142.68V33H123.13ZM164.145 33L162.857 27.296H154.393L153.197 33H144.917L152.829 1.352H164.651L172.563 33H164.145ZM158.763 8.574H158.441L155.819 20.902H161.431L158.763 8.574ZM190.116 33L186.896 22.19H183.722V33H175.304V1.352H189.012C191.588 1.352 193.52 1.73533 194.808 2.502C196.127 3.26867 197.001 4.388 197.43 5.86C197.89 7.30133 198.12 9.264 198.12 11.748C198.12 14.0787 197.89 16.0107 197.43 17.544C196.97 19.0467 196.05 20.1813 194.67 20.948L198.81 33H190.116ZM186.298 15.888C187.372 15.888 188.123 15.8113 188.552 15.658C189.012 15.474 189.319 15.1213 189.472 14.6C189.626 14.048 189.702 13.128 189.702 11.84C189.702 10.552 189.641 9.66267 189.518 9.172C189.396 8.65067 189.104 8.298 188.644 8.114C188.184 7.93 187.402 7.838 186.298 7.838H183.722V15.888H186.298ZM218.454 33L210.726 16.67H210.496V33H202.492V1.352H210.91L217.856 15.842H218.132V1.352H226.182V33H218.454Z" fill="#5826ED"/>
</svg>
